# xmcd
#
# Track frame offsets: 
#        150
#        14919
#        33775
#        54914
#        67984
#        80014
#        101890
#        117497
#        134800
#        149350
#        171955
#        183841
#        195937
#        212479
#
# Disc length: 3023 seconds
#
# Revision: 13
# Processed by: cddbd v1.5.2PL0 Copyright (c) Steve Scherf et al.
# Submitted via: ExactAudioCopy v0.99pb4
#
DISCID=ca0bcd0e
DTITLE=BANDARI 班得瑞乐团 - Crystal Lake 琉璃湖畔
DYEAR=2002
DGENRE=New Age
TTITLE0=秘密 Mystica
TTITLE1=马可波罗 Marco Polo
TTITLE2=雨 Raindrops on Your Face
TTITLE3=夏日华尔兹 Summerwaltz
TTITLE4=黑风车 Black Windmill
TTITLE5=日本的女孩 Japanese Girl
TTITLE6=依卡路斯的羽翼 The Wings of Ikarus
TTITLE7=思念 Theme from Missing
TTITLE8=涟漪 Sparkling Raindrops
TTITLE9=忧郁的爱 Blue Love Theme
TTITLE10=晴天 A Day Without Rain
TTITLE11=水蓝 Aqua Blue
TTITLE12=西藏的月 White Moon over Tibet
TTITLE13=情书 Loverletter to You
EXTD=YEAR: 2002
EXTT0=
EXTT1=
EXTT2=
EXTT3=
EXTT4=
EXTT5=
EXTT6=
EXTT7=
EXTT8=
EXTT9=
EXTT10=
EXTT11=
EXTT12=
EXTT13=
PLAYORDER=
